<svg width="32" height="32" viewBox="0 0 32 32" fill="none" xmlns="http://www.w3.org/2000/svg">
<path fill-rule="evenodd" clip-rule="evenodd" d="M19.9534 19.0067H21.0068L27.6601 25.6734L25.6734 27.66L19.0068 21.0067V19.9534L18.6468 19.58C17.1268 20.8867 15.1534 21.6734 13.0068 21.6734C8.22009 21.6734 4.34009 17.7934 4.34009 13.0067C4.34009 8.22003 8.22009 4.34003 13.0068 4.34003C17.7934 4.34003 21.6734 8.22003 21.6734 13.0067C21.6734 15.1534 20.8868 17.1267 19.5801 18.6467L19.9534 19.0067ZM7.00675 13.0067C7.00675 16.3267 9.68676 19.0067 13.0068 19.0067C16.3268 19.0067 19.0068 16.3267 19.0068 13.0067C19.0068 9.68669 16.3268 7.00669 13.0068 7.00669C9.68676 7.00669 7.00675 9.68669 7.00675 13.0067Z" fill="white"/>
</svg>
